{
  "source": "C:\\Users\\Peter\\Desktop\\stuff\\MIUN\\quantitative_research\\video_compression\\videos\\BVI-HD\\BVI-HD_CDVL_videos\\ORIG\\Lightreef_1920x1080_30fps.mp4",
  "output": "C:\\Users\\Peter\\Desktop\\stuff\\MIUN\\quantitative_research\\video_compression\\compressed_videos\\BVI-HD\\av1\\2.5\\Lightreef_1920x1080_30fps_av1.mkv",
  "codec": "av1",
  "ok": "Input #0, mov,mp4,m4a,3gp,3g2,mj2, from 'C:\\Users\\Peter\\Desktop\\stuff\\MIUN\\quantitative_research\\video_compression\\videos\\BVI-HD\\BVI-HD_CDVL_videos\\ORIG\\Lightreef_1920x1080_30fps.mp4':\n  Metadata:\n    major_brand     : isom\n    minor_version   : 512\n    compatible_brands: isomiso2avc1mp41\n    encoder         : Lavf54.28.101\n  Duration: 00:00:05.00, start: 0.000000, bitrate: 361719 kb/s\n  Stream #0:0[0x1](und): Video: h264 (High 4:4:4 Predictive) (avc1 / 0x31637661), yuv420p(progressive), 1920x1080, 361715 kb/s, 30 fps, 30 tbr, 30 tbn (default)\n    Metadata:\n      handler_name    : VideoHandler\n      vendor_id       : [0][0][0][0]\n[out#0/matroska @ 00000193b9dc9700] Codec AVOption b:a (set bitrate (in bits/s)) has not been used for any stream. The most likely reason is either wrong type (e.g. a video option with no video streams) or that it is a private option of some decoder which was not actually used for any stream.\nStream mapping:\n  Stream #0:0 -> #0:0 (h264 (native) -> av1 (libsvtav1))\nPress [q] to stop, [?] for help\nSvt[info]: -------------------------------------------\nSvt[info]: SVT [version]:\tSVT-AV1 Encoder Lib v3.1.0-19-g6ecfe8ec\nSvt[info]: SVT [build]  :\tGCC 15.2.0\t 64 bit\nSvt[info]: LIB Build date: Aug 17 2025 11:37:13\nSvt[info]: -------------------------------------------\nSvt[info]: Level of Parallelism: 5\nSvt[info]: Number of PPCS 93\nSvt[info]: [asm level on system : up to avx2]\nSvt[info]: [asm level selected : up to avx2]\nSvt[info]: -------------------------------------------\nSvt[info]: SVT [config]: main profile\ttier (auto)\tlevel (auto)\nSvt[info]: SVT [config]: width / height / fps numerator / fps denominator \t\t: 1920 / 1080 / 30 / 1\nSvt[info]: SVT [config]: bit-depth / color format \t\t\t\t\t: 8 / YUV420\nSvt[info]: SVT [config]: preset / tune / pred struct \t\t\t\t\t: 4 / PSNR / random access\nSvt[info]: SVT [config]: gop size / mini-gop size / key-frame type \t\t\t: 161 / 16 / key frame\nSvt[info]: SVT [config]: BRC mode / target bitrate (kbps)\t\t\t\t: VBR / 2500 \nSvt[info]: SVT [config]: AQ mode / Variance Boost \t\t\t\t\t: 2 / 0\nSvt[info]: SVT [config]: sharpness / luminance-based QP bias \t\t\t\t: 0 / 0\nSvt[info]: SVT [config]: QP scale compress strength \t\t\t\t\t: 0\nSvt[info]: -------------------------------------------\nOutput #0, matroska, to 'C:\\Users\\Peter\\Desktop\\stuff\\MIUN\\quantitative_research\\video_compression\\compressed_videos\\BVI-HD\\av1\\2.5\\Lightreef_1920x1080_30fps_av1.mkv':\n  Metadata:\n    major_brand     : isom\n    minor_version   : 512\n    compatible_brands: isomiso2avc1mp41\n    encoder         : Lavf62.3.100\n  Stream #0:0(und): Video: av1 (AV01 / 0x31305641), yuv420p(tv, progressive), 1920x1080, q=2-31, 2500 kb/s, 30 fps, 1k tbn (default)\n    Metadata:\n      encoder         : Lavc62.11.100 libsvtav1\n      handler_name    : VideoHandler\n      vendor_id       : [0][0][0][0]\n    Side data:\n      cpb: bitrate max/min/avg: 0/0/2500000 buffer size: 2500000 vbv_delay: N/A\nframe=    0 fps=0.0 q=0.0 size=       0KiB time=N/A bitrate=N/A speed=N/A elapsed=0:00:01.02    \nframe=    0 fps=0.0 q=0.0 size=       0KiB time=N/A bitrate=N/A speed=N/A elapsed=0:00:01.56    \nframe=    0 fps=0.0 q=0.0 size=       0KiB time=N/A bitrate=N/A speed=N/A elapsed=0:00:02.10    \nframe=    0 fps=0.0 q=0.0 size=       0KiB time=N/A bitrate=N/A speed=N/A elapsed=0:00:02.65    \nframe=    0 fps=0.0 q=0.0 size=       0KiB time=N/A bitrate=N/A speed=N/A elapsed=0:00:03.30    \nframe=    0 fps=0.0 q=0.0 size=       0KiB time=N/A bitrate=N/A speed=N/A elapsed=0:00:03.82    \nframe=    1 fps=0.2 q=30.0 size=       1KiB time=00:00:00.00 bitrate=N/A speed=   0x elapsed=0:00:04.33    \nframe=    1 fps=0.2 q=30.0 size=       1KiB time=00:00:00.00 bitrate=N/A speed=   0x elapsed=0:00:04.84    \nframe=    2 fps=0.4 q=47.0 size=       1KiB time=00:00:00.03 bitrate= 171.1kbits/s speed=0.0062x elapsed=0:00:05.37    \nframe=    8 fps=1.4 q=47.0 size=       1KiB time=00:00:00.23 bitrate=  24.4kbits/s speed=0.0395x elapsed=0:00:05.90    \nframe=   12 fps=1.9 q=47.0 size=       1KiB time=00:00:00.36 bitrate=  15.6kbits/s speed=0.0571x elapsed=0:00:06.41    \nframe=   18 fps=2.6 q=47.0 size=       1KiB time=00:00:00.56 bitrate=  10.1kbits/s speed=0.0816x elapsed=0:00:06.94    \nframe=   23 fps=3.1 q=46.0 size=       1KiB time=00:00:00.73 bitrate=   7.8kbits/s speed=0.0979x elapsed=0:00:07.48    \nframe=   27 fps=3.4 q=45.0 size=       1KiB time=00:00:00.86 bitrate=   6.6kbits/s speed=0.108x elapsed=0:00:08.01    \nframe=   34 fps=4.0 q=49.0 size=       1KiB time=00:00:01.10 bitrate=   5.2kbits/s speed=0.129x elapsed=0:00:08.53    \nframe=   40 fps=4.4 q=49.0 size=       1KiB time=00:00:01.30 bitrate=   4.4kbits/s speed=0.143x elapsed=0:00:09.08    \nframe=   45 fps=4.7 q=46.0 size=       1KiB time=00:00:01.46 bitrate=   3.9kbits/s speed=0.153x elapsed=0:00:09.61    \nframe=   52 fps=5.1 q=49.0 size=       1KiB time=00:00:01.70 bitrate=   3.4kbits/s speed=0.167x elapsed=0:00:10.15    \nframe=   57 fps=5.3 q=43.0 size=       1KiB time=00:00:01.86 bitrate=   3.1kbits/s speed=0.175x elapsed=0:00:10.68    \nframe=   63 fps=5.6 q=44.0 size=       1KiB time=00:00:02.00 bitrate=   2.9kbits/s speed=0.178x elapsed=0:00:11.20    \nframe=   69 fps=5.9 q=46.0 size=       1KiB time=00:00:02.26 bitrate=   2.5kbits/s speed=0.193x elapsed=0:00:11.75    \nframe=   73 fps=5.9 q=43.0 size=       1KiB time=00:00:02.40 bitrate=   2.4kbits/s speed=0.195x elapsed=0:00:12.29    \nframe=   79 fps=6.2 q=47.0 size=       1KiB time=00:00:02.60 bitrate=   2.2kbits/s speed=0.203x elapsed=0:00:12.83    \nframe=   85 fps=6.4 q=47.0 size=       1KiB time=00:00:02.80 bitrate=   2.0kbits/s speed=0.21x elapsed=0:00:13.36    \nframe=   89 fps=6.4 q=43.0 size=       1KiB time=00:00:02.93 bitrate=   1.9kbits/s speed=0.211x elapsed=0:00:13.88    \nframe=   95 fps=6.6 q=48.0 size=       1KiB time=00:00:03.13 bitrate=   1.8kbits/s speed=0.218x elapsed=0:00:14.40    \nframe=  103 fps=6.9 q=46.0 size=       1KiB time=00:00:03.40 bitrate=   1.7kbits/s speed=0.228x elapsed=0:00:14.92    \nframe=  107 fps=6.9 q=48.0 size=       1KiB time=00:00:03.53 bitrate=   1.6kbits/s speed=0.228x elapsed=0:00:15.46    \nframe=  113 fps=7.1 q=38.0 size=       1KiB time=00:00:03.73 bitrate=   1.5kbits/s speed=0.234x elapsed=0:00:15.98    \nframe=  121 fps=7.3 q=45.0 size=       1KiB time=00:00:04.00 bitrate=   1.4kbits/s speed=0.242x elapsed=0:00:16.50    \nframe=  125 fps=7.3 q=47.0 size=       1KiB time=00:00:04.13 bitrate=   1.4kbits/s speed=0.243x elapsed=0:00:17.01    \nframe=  133 fps=7.6 q=53.0 size=       1KiB time=00:00:04.33 bitrate=   1.3kbits/s speed=0.247x elapsed=0:00:17.54    \nframe=  137 fps=7.6 q=49.0 size=       1KiB time=00:00:04.53 bitrate=   1.3kbits/s speed=0.251x elapsed=0:00:18.06    \nframe=  143 fps=7.7 q=53.0 size=       1KiB time=00:00:04.73 bitrate=   1.2kbits/s speed=0.255x elapsed=0:00:18.58    \n[out#0/matroska @ 00000193b9dc9700] video:1542KiB audio:0KiB subtitle:0KiB other streams:0KiB global headers:0KiB muxing overhead: 0.091881%\nframe=  150 fps=8.0 q=53.0 Lsize=    1544KiB time=00:00:04.96 bitrate=2546.1kbits/s speed=0.266x elapsed=0:00:18.64    \n",
  "seconds": 19.135915517807007,
  "probe_out": {}
}